<svg width="176" height="68" viewBox="0 0 176 68" fill="none" xmlns="http://www.w3.org/2000/svg">
<rect x="16" y="1" width="159" height="50" rx="7" fill="url(#paint0_linear_7_3)" stroke="url(#paint1_linear_7_3)" stroke-width="2"/>
<g filter="url(#filter0_b_7_3)">
<rect y="8" width="167" height="60" rx="8" fill="white" fill-opacity="0.8"/>
<rect x="1" y="9" width="165" height="58" rx="7" stroke="url(#paint2_linear_7_3)" stroke-width="2"/>
</g>
<path d="M44.0996 44.8945C44.0996 46.5215 43.6895 48.0664 42.8691 49.5293C42.0488 50.9785 40.7705 52.1543 39.0342 53.0566C37.3115 53.959 35.083 54.4102 32.3486 54.4102C30.9814 54.4102 29.7783 54.3486 28.7393 54.2256C27.7139 54.1025 26.7568 53.9043 25.8682 53.6309C24.9795 53.3438 24.0566 52.9746 23.0996 52.5234V45.3047C24.7266 46.125 26.3672 46.7539 28.0215 47.1914C29.6758 47.6152 31.1729 47.8271 32.5127 47.8271C33.3193 47.8271 33.9756 47.7314 34.4814 47.54C35.001 47.3486 35.3838 47.0889 35.6299 46.7607C35.876 46.4189 35.999 46.0293 35.999 45.5918C35.999 45.0723 35.8145 44.6348 35.4453 44.2793C35.0898 43.9102 34.5156 43.5273 33.7227 43.1309C32.9297 42.7344 31.8838 42.2422 30.585 41.6543C29.4775 41.1348 28.4727 40.6016 27.5703 40.0547C26.6816 39.5078 25.916 38.8857 25.2734 38.1885C24.6445 37.4775 24.1592 36.6504 23.8174 35.707C23.4756 34.7637 23.3047 33.6494 23.3047 32.3643C23.3047 30.4365 23.7764 28.8232 24.7197 27.5244C25.6768 26.2119 27.0029 25.2275 28.6982 24.5713C30.4072 23.915 32.376 23.5869 34.6045 23.5869C36.5596 23.5869 38.3164 23.8057 39.875 24.2432C41.4473 24.6807 42.8555 25.1797 44.0996 25.7402L41.6182 31.9951C40.333 31.4072 39.0684 30.9424 37.8242 30.6006C36.5801 30.2451 35.4248 30.0674 34.3584 30.0674C33.6611 30.0674 33.0869 30.1562 32.6357 30.334C32.1982 30.498 31.8701 30.7236 31.6514 31.0107C31.4463 31.2979 31.3438 31.626 31.3438 31.9951C31.3438 32.46 31.5215 32.877 31.877 33.2461C32.2461 33.6152 32.8545 34.0186 33.7021 34.4561C34.5635 34.8799 35.7324 35.4336 37.209 36.1172C38.6719 36.7734 39.916 37.4844 40.9414 38.25C41.9668 39.002 42.7461 39.9111 43.2793 40.9775C43.8262 42.0303 44.0996 43.3359 44.0996 44.8945ZM66.5352 54H48.7344V24.0176H66.5352V30.5186H56.835V35.2354H65.8174V41.7363H56.835V47.3965H66.5352V54ZM71.7852 54V24.0176H79.8857V47.458H91.4316V54H71.7852ZM114.626 54L113.149 48.3809H103.408L101.891 54H92.9902L102.772 23.8945H113.58L123.485 54H114.626ZM111.468 41.7363L110.176 36.8145C110.039 36.2812 109.841 35.5225 109.581 34.5381C109.321 33.54 109.062 32.5146 108.802 31.4619C108.556 30.3955 108.364 29.5205 108.228 28.8369C108.104 29.5205 107.927 30.3682 107.694 31.3799C107.476 32.3779 107.243 33.3691 106.997 34.3535C106.765 35.3379 106.56 36.1582 106.382 36.8145L105.09 41.7363H111.468ZM146.352 44.8945C146.352 46.5215 145.941 48.0664 145.121 49.5293C144.301 50.9785 143.022 52.1543 141.286 53.0566C139.563 53.959 137.335 54.4102 134.601 54.4102C133.233 54.4102 132.03 54.3486 130.991 54.2256C129.966 54.1025 129.009 53.9043 128.12 53.6309C127.231 53.3438 126.309 52.9746 125.352 52.5234V45.3047C126.979 46.125 128.619 46.7539 130.273 47.1914C131.928 47.6152 133.425 47.8271 134.765 47.8271C135.571 47.8271 136.228 47.7314 136.733 47.54C137.253 47.3486 137.636 47.0889 137.882 46.7607C138.128 46.4189 138.251 46.0293 138.251 45.5918C138.251 45.0723 138.066 44.6348 137.697 44.2793C137.342 43.9102 136.768 43.5273 135.975 43.1309C135.182 42.7344 134.136 42.2422 132.837 41.6543C131.729 41.1348 130.725 40.6016 129.822 40.0547C128.934 39.5078 128.168 38.8857 127.525 38.1885C126.896 37.4775 126.411 36.6504 126.069 35.707C125.728 34.7637 125.557 33.6494 125.557 32.3643C125.557 30.4365 126.028 28.8232 126.972 27.5244C127.929 26.2119 129.255 25.2275 130.95 24.5713C132.659 23.915 134.628 23.5869 136.856 23.5869C138.812 23.5869 140.568 23.8057 142.127 24.2432C143.699 24.6807 145.107 25.1797 146.352 25.7402L143.87 31.9951C142.585 31.4072 141.32 30.9424 140.076 30.6006C138.832 30.2451 137.677 30.0674 136.61 30.0674C135.913 30.0674 135.339 30.1562 134.888 30.334C134.45 30.498 134.122 30.7236 133.903 31.0107C133.698 31.2979 133.596 31.626 133.596 31.9951C133.596 32.46 133.773 32.877 134.129 33.2461C134.498 33.6152 135.106 34.0186 135.954 34.4561C136.815 34.8799 137.984 35.4336 139.461 36.1172C140.924 36.7734 142.168 37.4844 143.193 38.25C144.219 39.002 144.998 39.9111 145.531 40.9775C146.078 42.0303 146.352 43.3359 146.352 44.8945Z" fill="url(#paint3_linear_7_3)"/>
<defs>
<filter id="filter0_b_7_3" x="-10" y="-2" width="187" height="80" filterUnits="userSpaceOnUse" color-interpolation-filters="sRGB">
<feFlood flood-opacity="0" result="BackgroundImageFix"/>
<feGaussianBlur in="BackgroundImageFix" stdDeviation="5"/>
<feComposite in2="SourceAlpha" operator="in" result="effect1_backgroundBlur_7_3"/>
<feBlend mode="normal" in="SourceGraphic" in2="effect1_backgroundBlur_7_3" result="shape"/>
</filter>
<linearGradient id="paint0_linear_7_3" x1="95.5" y1="0" x2="95.5" y2="52" gradientUnits="userSpaceOnUse">
<stop stop-color="#132956"/>
<stop offset="1" stop-color="#132956" stop-opacity="0.28"/>
</linearGradient>
<linearGradient id="paint1_linear_7_3" x1="95.5" y1="0" x2="95.5" y2="52" gradientUnits="userSpaceOnUse">
<stop stop-color="#132956"/>
<stop offset="1" stop-color="#132956" stop-opacity="0.28"/>
</linearGradient>
<linearGradient id="paint2_linear_7_3" x1="83.5" y1="8" x2="83.5" y2="68" gradientUnits="userSpaceOnUse">
<stop stop-color="#132956"/>
<stop offset="1" stop-color="#132956" stop-opacity="0.28"/>
</linearGradient>
<linearGradient id="paint3_linear_7_3" x1="84.5" y1="9" x2="84.5" y2="66" gradientUnits="userSpaceOnUse">
<stop stop-color="#132956"/>
<stop offset="1" stop-color="#132956" stop-opacity="0.28"/>
</linearGradient>
</defs>
</svg>
